<svg width="297" height="146" viewBox="0 0 297 146" fill="none" xmlns="http://www.w3.org/2000/svg">
<path d="M116.828 141.062V139.634L117.42 139.581C117.766 139.546 117.94 139.382 117.94 139.088V130.888L116.918 130.835V129.337H121.832C123.59 129.337 124.958 129.795 125.939 130.712C126.931 131.629 127.428 132.987 127.428 134.785C127.428 135.902 127.278 136.878 126.979 137.712C126.68 138.535 126.274 139.181 125.76 139.652C124.732 140.592 123.452 141.062 121.922 141.062H116.828ZM120.128 131.047V139.37H121.957C122.985 139.37 123.787 139.005 124.361 138.276C124.935 137.548 125.222 136.49 125.222 135.103C125.222 132.399 124.056 131.047 121.724 131.047H120.128ZM135.212 138.999V130.888L134.19 130.835V129.337H138.53V130.765L137.938 130.818C137.592 130.853 137.418 131.041 137.418 131.382V139.511L138.44 139.564V141.062H134.1V139.634L134.692 139.581C134.871 139.558 135.003 139.511 135.086 139.44C135.17 139.358 135.212 139.211 135.212 138.999ZM154.521 136.954V140.146C153.409 140.898 152.028 141.274 150.378 141.274C148.728 141.274 147.437 140.768 146.504 139.758C145.584 138.735 145.123 137.224 145.123 135.226C145.123 134.344 145.237 133.551 145.464 132.846C145.703 132.14 146.008 131.558 146.379 131.1C146.761 130.641 147.204 130.259 147.706 129.954C148.662 129.401 149.745 129.125 150.952 129.125C152.172 129.125 153.307 129.366 154.36 129.848V132.846L152.531 132.969V131.594C152.531 131.417 152.507 131.288 152.459 131.206C152.328 130.982 151.783 130.871 150.827 130.871C148.519 130.871 147.365 132.276 147.365 135.085C147.365 138.047 148.406 139.528 150.486 139.528C151.311 139.528 151.944 139.387 152.387 139.105V136.478H152.369L150.988 136.425V134.926H155.454V136.337L155.041 136.372C154.85 136.395 154.713 136.448 154.629 136.531C154.557 136.601 154.521 136.742 154.521 136.954ZM162.962 138.999V130.888L161.94 130.835V129.337H166.28V130.765L165.688 130.818C165.341 130.853 165.168 131.041 165.168 131.382V139.511L166.19 139.564V141.062H161.85V139.634L162.442 139.581C162.621 139.558 162.753 139.511 162.837 139.44C162.92 139.358 162.962 139.211 162.962 138.999ZM176.066 139.088V131.082H174.667C174.392 131.082 174.255 131.264 174.255 131.629V132.458L172.425 132.334V129.337H181.805V132.334L179.976 132.458V131.629C179.976 131.429 179.946 131.288 179.886 131.206C179.826 131.123 179.682 131.082 179.456 131.082H178.236V139.511L179.653 139.564V141.062H174.595V139.634L175.546 139.581C175.892 139.546 176.066 139.382 176.066 139.088ZM187.408 139.088L190.295 130.871L189.166 130.765V129.337H193.273L196.931 139.511H196.949L197.972 139.564V141.062H193.344V139.634L194.026 139.581C194.23 139.558 194.367 139.511 194.438 139.44C194.51 139.37 194.517 139.241 194.456 139.052L194.08 137.959H189.883L189.345 139.511L190.421 139.564V141.062H186.278V139.634L186.87 139.581C187.121 139.558 187.3 139.393 187.408 139.088ZM191.981 131.311L190.313 136.337H193.649L192.035 131.311H191.981ZM212.537 141.062H204.018V139.634L204.61 139.581C204.956 139.546 205.13 139.382 205.13 139.088V130.888L204.107 130.835V129.337H208.43V130.765L207.838 130.818C207.491 130.853 207.318 131.041 207.318 131.382V139.246H210.295C210.462 139.246 210.57 139.205 210.618 139.123C210.677 139.029 210.707 138.882 210.707 138.682V137.448L212.537 137.571V141.062ZM229.114 138.999V130.888L228.092 130.835V129.337H232.432V130.765L231.84 130.818C231.493 130.853 231.32 131.041 231.32 131.382V139.511L232.342 139.564V141.062H228.002V139.634L228.594 139.581C228.773 139.558 228.905 139.511 228.989 139.44C229.072 139.358 229.114 139.211 229.114 138.999ZM238.882 141.062V139.634L239.528 139.581C239.838 139.558 239.994 139.393 239.994 139.088V130.888L238.972 130.835V129.337H242.2L247.276 137.43H247.312V130.888L246.128 130.835V129.337H250.504V130.765L249.858 130.818C249.571 130.841 249.428 131.024 249.428 131.364V141.062H247.329L242.146 132.846H242.11V139.511L243.276 139.564V141.062H238.882ZM256.944 141.062V139.634L257.536 139.581C257.882 139.546 258.056 139.382 258.056 139.088V130.888L257.034 130.835V129.337H261.948C263.705 129.337 265.074 129.795 266.055 130.712C267.047 131.629 267.543 132.987 267.543 134.785C267.543 135.902 267.393 136.878 267.095 137.712C266.796 138.535 266.389 139.181 265.876 139.652C264.847 140.592 263.568 141.062 262.037 141.062H256.944ZM260.244 131.047V139.37H262.073C263.101 139.37 263.903 139.005 264.477 138.276C265.05 137.548 265.337 136.49 265.337 135.103C265.337 132.399 264.172 131.047 261.84 131.047H260.244ZM275.327 138.999V130.888L274.305 130.835V129.337H278.645V130.765L278.053 130.818C277.707 130.853 277.533 131.041 277.533 131.382V139.511L278.555 139.564V141.062H274.215V139.634L274.807 139.581C274.986 139.558 275.118 139.511 275.202 139.44C275.286 139.358 275.327 139.211 275.327 138.999ZM285.741 139.088L288.628 130.871L287.498 130.765V129.337H291.605L295.264 139.511H295.282L296.304 139.564V141.062H291.677V139.634L292.359 139.581C292.562 139.558 292.699 139.511 292.771 139.44C292.843 139.37 292.849 139.241 292.789 139.052L292.413 137.959H288.216L287.678 139.511L288.754 139.564V141.062H284.611V139.634L285.203 139.581C285.454 139.558 285.633 139.393 285.741 139.088ZM290.314 131.311L288.646 136.337H291.982L290.368 131.311H290.314Z" fill="black"/>
<g filter="url(#filter0_d_964_59148)">
<path d="M42.1064 95.5736C42.1064 99.5467 41.5892 103.022 40.5549 106.002C39.5207 108.958 38.0053 111.418 36.0089 113.381C34.0365 115.32 31.6071 116.774 28.7208 117.744C25.8344 118.714 22.3948 119.198 18.402 119.198H8.51611C7.96293 119.198 7.43378 119.021 6.92863 118.666C6.44757 118.288 6.20703 117.637 6.20703 116.715V75.7797C6.20703 74.8578 6.44757 74.2195 6.92863 73.8648C7.43378 73.486 7.96293 73.297 8.51611 73.297H19.0875C23.1284 73.297 26.544 73.8175 29.3342 74.8578C32.1243 75.8749 34.4575 77.3525 36.3336 79.2914C38.2338 81.2071 39.6649 83.5367 40.6271 86.2797C41.6133 89.0227 42.1064 92.1211 42.1064 95.5736ZM35.576 95.8219C35.576 93.3385 35.2632 91.0328 34.6378 88.9049C34.0125 86.753 33.0263 84.8966 31.6793 83.3357C30.3564 81.7749 28.6726 80.5568 26.6282 79.6822C24.5837 78.8069 21.9498 78.3696 18.7267 78.3696H12.4128V114.09H18.7988C21.7815 114.09 24.295 113.723 26.3395 112.991C28.384 112.257 30.0918 111.134 31.4629 109.621C32.8339 108.107 33.8562 106.215 34.5296 103.945C35.2272 101.651 35.576 98.9436 35.576 95.8219ZM56.9351 118.312C56.9351 118.501 56.887 118.666 56.7908 118.808C56.6946 118.926 56.5383 119.032 56.3218 119.127C56.1053 119.222 55.8047 119.293 55.4198 119.34C55.0349 119.387 54.5419 119.411 53.9405 119.411C53.3632 119.411 52.8822 119.387 52.4974 119.34C52.1125 119.293 51.7998 119.222 51.5593 119.127C51.3428 119.032 51.1865 118.926 51.0902 118.808C51.0181 118.666 50.982 118.501 50.982 118.312V86.3862C50.982 86.2204 51.0181 86.0667 51.0902 85.9249C51.1865 85.7832 51.3428 85.6647 51.5593 85.5702C51.7998 85.4756 52.1125 85.4051 52.4974 85.3579C52.8822 85.3099 53.3632 85.2866 53.9405 85.2866C54.5419 85.2866 55.0349 85.3099 55.4198 85.3579C55.8047 85.4051 56.1053 85.4756 56.3218 85.5702C56.5383 85.6647 56.6946 85.7832 56.7908 85.9249C56.887 86.0667 56.9351 86.2204 56.9351 86.3862V118.312ZM95.0714 87.8406C95.0714 88.6686 94.9509 89.2709 94.7106 89.6497C94.4939 90.0045 94.2055 90.1815 93.8447 90.1815H89.1903C90.0325 91.0328 90.6215 91.9793 90.9586 93.0197C91.2951 94.0367 91.4637 95.1004 91.4637 96.2119C91.4637 98.0563 91.1631 99.6884 90.5612 101.108C89.96 102.526 89.0941 103.732 87.9635 104.725C86.8573 105.695 85.5344 106.44 83.9949 106.96C82.4554 107.481 80.748 107.74 78.8713 107.74C77.5484 107.74 76.2858 107.575 75.0835 107.244C73.9048 106.889 72.9909 106.452 72.3409 105.931C71.9083 106.357 71.5475 106.842 71.2588 107.386C70.9942 107.93 70.8619 108.556 70.8619 109.266C70.8619 110.093 71.2467 110.779 72.0166 111.323C72.8101 111.867 73.8568 112.163 75.1552 112.21L83.6341 112.565C85.246 112.612 86.7253 112.837 88.0719 113.239C89.4191 113.617 90.5856 114.173 91.572 114.906C92.5577 115.615 93.3275 116.502 93.8806 117.567C94.4337 118.607 94.7106 119.825 94.7106 121.22C94.7106 122.686 94.3978 124.082 93.7722 125.406C93.1474 126.73 92.1854 127.889 90.8862 128.882C89.6114 129.899 87.9757 130.691 85.9792 131.259C83.9827 131.85 81.6254 132.146 78.9079 132.146C76.2858 132.146 74.049 131.921 72.1967 131.471C70.3689 131.046 68.8655 130.455 67.6869 129.698C66.5083 128.941 65.6544 128.031 65.1252 126.966C64.5961 125.926 64.3315 124.791 64.3315 123.561C64.3315 122.781 64.4277 122.024 64.6201 121.291C64.8125 120.558 65.1012 119.86 65.486 119.198C65.8949 118.536 66.3881 117.91 66.9653 117.318C67.5667 116.703 68.2521 116.1 69.0218 115.509C67.8432 114.918 66.9653 114.173 66.3881 113.274C65.8348 112.376 65.5582 111.406 65.5582 110.365C65.5582 108.923 65.8588 107.634 66.4602 106.499C67.0615 105.364 67.8072 104.347 68.6971 103.448C67.9515 102.573 67.3622 101.592 66.9293 100.504C66.4962 99.3929 66.2798 98.0563 66.2798 96.4955C66.2798 94.675 66.5925 93.043 67.2179 91.6006C67.8432 90.1582 68.7092 88.9401 69.8156 87.9471C70.922 86.954 72.2448 86.1972 73.7843 85.6767C75.3475 85.1329 77.0434 84.8606 78.8713 84.8606C79.8577 84.8606 80.7717 84.9199 81.6139 85.0383C82.4798 85.1329 83.2854 85.2746 84.0308 85.4636H93.8447C94.2536 85.4636 94.5542 85.6647 94.7465 86.0667C94.9631 86.4454 95.0714 87.0365 95.0714 87.8406ZM85.7626 96.2472C85.7626 94.072 85.1492 92.3814 83.9225 91.1753C82.7201 89.9452 81.0005 89.3302 78.7637 89.3302C77.6087 89.3302 76.5986 89.5199 75.7327 89.898C74.8905 90.276 74.181 90.7965 73.6042 91.4588C73.0504 92.1211 72.63 92.8892 72.3409 93.7645C72.0769 94.6158 71.9442 95.5144 71.9442 96.4602C71.9442 98.5649 72.5454 100.22 73.7484 101.426C74.9752 102.632 76.6825 103.235 78.8713 103.235C80.05 103.235 81.0723 103.058 81.9382 102.704C82.804 102.325 83.5135 101.816 84.0674 101.178C84.6442 100.516 85.0653 99.759 85.33 98.9076C85.6184 98.0563 85.7626 97.1698 85.7626 96.2472ZM88.7577 121.539C88.7577 120.168 88.1802 119.116 87.0259 118.382C85.8953 117.625 84.3558 117.223 82.4073 117.176L74.0009 116.892C73.2312 117.483 72.5934 118.051 72.0884 118.595C71.6076 119.116 71.2227 119.612 70.9341 120.085C70.6454 120.581 70.441 121.066 70.3207 121.539C70.2245 122.012 70.1764 122.497 70.1764 122.993C70.1764 124.531 70.9702 125.69 72.5575 126.47C74.1451 127.274 76.3583 127.676 79.1963 127.676C81.0005 127.676 82.5035 127.499 83.7065 127.144C84.9333 126.813 85.919 126.363 86.6651 125.796C87.4104 125.229 87.9398 124.578 88.2526 123.845C88.5891 123.112 88.7577 122.343 88.7577 121.539ZM108.673 118.312C108.673 118.501 108.625 118.666 108.529 118.808C108.433 118.926 108.276 119.032 108.06 119.127C107.844 119.222 107.543 119.293 107.158 119.34C106.774 119.387 106.28 119.411 105.679 119.411C105.101 119.411 104.621 119.387 104.235 119.34C103.851 119.293 103.538 119.222 103.298 119.127C103.081 119.032 102.925 118.926 102.829 118.808C102.756 118.666 102.72 118.501 102.72 118.312V86.3862C102.72 86.2204 102.756 86.0667 102.829 85.9249C102.925 85.7832 103.081 85.6647 103.298 85.5702C103.538 85.4756 103.851 85.4051 104.235 85.3579C104.621 85.3099 105.101 85.2866 105.679 85.2866C106.28 85.2866 106.774 85.3099 107.158 85.3579C107.543 85.4051 107.844 85.4756 108.06 85.5702C108.276 85.6647 108.433 85.7832 108.529 85.9249C108.625 86.0667 108.673 86.2204 108.673 86.3862V118.312ZM146.305 86.315C146.305 86.4102 146.292 86.516 146.269 86.6345C146.269 86.729 146.257 86.8355 146.232 86.954C146.209 87.0718 146.173 87.2022 146.125 87.344C146.1 87.4858 146.064 87.6395 146.016 87.8053L134.94 118.134C134.844 118.394 134.711 118.607 134.542 118.772C134.398 118.938 134.17 119.068 133.857 119.163C133.544 119.257 133.148 119.317 132.666 119.34C132.186 119.387 131.584 119.411 130.863 119.411C130.141 119.411 129.54 119.387 129.059 119.34C128.577 119.293 128.18 119.222 127.868 119.127C127.579 119.032 127.35 118.903 127.183 118.737C127.014 118.571 126.882 118.37 126.785 118.134L115.745 87.8053C115.649 87.521 115.564 87.2728 115.493 87.0605C115.445 86.8475 115.408 86.6937 115.384 86.5992C115.384 86.4807 115.384 86.3862 115.384 86.315C115.384 86.1259 115.432 85.9602 115.529 85.8184C115.625 85.6767 115.781 85.5702 115.998 85.4996C116.238 85.4051 116.539 85.3459 116.9 85.3219C117.285 85.2986 117.753 85.2866 118.307 85.2866C119.004 85.2866 119.557 85.3099 119.966 85.3579C120.4 85.3811 120.724 85.4404 120.941 85.5349C121.181 85.6294 121.349 85.7479 121.446 85.8897C121.566 86.0314 121.674 86.2092 121.771 86.4215L130.935 112.742L131.079 113.168L131.187 112.742L140.243 86.4215C140.291 86.2092 140.375 86.0314 140.496 85.8897C140.616 85.7479 140.784 85.6294 141.001 85.5349C141.241 85.4404 141.554 85.3811 141.939 85.3579C142.348 85.3099 142.877 85.2866 143.526 85.2866C144.08 85.2866 144.537 85.2986 144.898 85.3219C145.258 85.3459 145.535 85.4051 145.727 85.4996C145.944 85.5941 146.088 85.7119 146.16 85.8544C146.257 85.9722 146.305 86.1259 146.305 86.315ZM176.467 118.347C176.467 118.63 176.371 118.843 176.179 118.985C175.986 119.127 175.722 119.233 175.385 119.305C175.048 119.375 174.555 119.411 173.906 119.411C173.28 119.411 172.775 119.375 172.39 119.305C172.03 119.233 171.765 119.127 171.596 118.985C171.428 118.843 171.344 118.63 171.344 118.347V115.155C169.925 116.644 168.337 117.803 166.582 118.63C164.85 119.458 163.01 119.872 161.061 119.872C159.353 119.872 157.802 119.647 156.407 119.198C155.036 118.772 153.857 118.146 152.871 117.318C151.909 116.49 151.151 115.473 150.598 114.267C150.069 113.061 149.804 111.69 149.804 110.152C149.804 108.355 150.177 106.794 150.923 105.471C151.669 104.146 152.739 103.046 154.134 102.171C155.529 101.297 157.237 100.646 159.257 100.22C161.278 99.7709 163.551 99.5467 166.077 99.5467H170.55V97.0632C170.55 95.8339 170.418 94.7456 170.154 93.7998C169.889 92.8539 169.456 92.0739 168.854 91.4588C168.277 90.8205 167.519 90.3472 166.582 90.0397C165.643 89.7089 164.489 89.5432 163.118 89.5432C161.65 89.5432 160.327 89.7209 159.149 90.075C157.995 90.4065 156.972 90.7845 156.082 91.2105C155.216 91.6126 154.483 91.9906 153.882 92.3454C153.304 92.6769 152.871 92.8419 152.583 92.8419C152.39 92.8419 152.222 92.7947 152.077 92.7002C151.933 92.6057 151.801 92.4639 151.681 92.2749C151.585 92.0851 151.512 91.8489 151.464 91.5653C151.416 91.2578 151.392 90.927 151.392 90.5722C151.392 89.9805 151.428 89.5199 151.5 89.1884C151.596 88.8336 151.801 88.5028 152.113 88.1953C152.451 87.8878 153.015 87.533 153.809 87.131C154.603 86.7057 155.517 86.327 156.551 85.9962C157.586 85.6414 158.716 85.3579 159.943 85.1449C161.17 84.9079 162.408 84.7901 163.659 84.7901C165.992 84.7901 167.976 85.0503 169.612 85.5702C171.248 86.0907 172.57 86.8595 173.581 87.8758C174.591 88.8696 175.325 90.111 175.782 91.6006C176.239 93.0902 176.467 94.8288 176.467 96.815V118.347ZM170.55 103.768H165.463C163.828 103.768 162.408 103.91 161.206 104.193C160.003 104.454 159.005 104.856 158.211 105.399C157.417 105.92 156.828 106.558 156.443 107.315C156.082 108.048 155.902 108.899 155.902 109.869C155.902 111.524 156.431 112.849 157.49 113.842C158.572 114.811 160.075 115.296 161.999 115.296C163.563 115.296 165.006 114.906 166.329 114.125C167.676 113.345 169.083 112.151 170.55 110.543V103.768ZM215.397 118.312C215.397 118.501 215.349 118.666 215.253 118.808C215.157 118.926 215.001 119.032 214.784 119.127C214.567 119.222 214.267 119.293 213.882 119.34C213.497 119.387 213.016 119.411 212.439 119.411C211.838 119.411 211.344 119.387 210.96 119.34C210.575 119.293 210.274 119.222 210.058 119.127C209.841 119.032 209.685 118.926 209.589 118.808C209.492 118.666 209.444 118.501 209.444 118.312V99.6172C209.444 97.7968 209.3 96.3304 209.011 95.2188C208.723 94.1073 208.302 93.1495 207.749 92.3454C207.195 91.5413 206.474 90.927 205.583 90.501C204.718 90.075 203.707 89.8627 202.553 89.8627C201.062 89.8627 199.57 90.3825 198.079 91.4236C196.588 92.4639 195.024 93.9888 193.388 95.9989V118.312C193.388 118.501 193.34 118.666 193.244 118.808C193.148 118.926 192.992 119.032 192.775 119.127C192.559 119.222 192.258 119.293 191.873 119.34C191.489 119.387 190.995 119.411 190.394 119.411C189.817 119.411 189.336 119.387 188.951 119.34C188.566 119.293 188.253 119.222 188.013 119.127C187.796 119.032 187.64 118.926 187.544 118.808C187.471 118.666 187.436 118.501 187.436 118.312V70.9201C187.436 70.7311 187.471 70.5653 187.544 70.4237C187.64 70.2818 187.796 70.1636 188.013 70.0689C188.253 69.9743 188.566 69.9034 188.951 69.8561C189.336 69.8088 189.817 69.7852 190.394 69.7852C190.995 69.7852 191.489 69.8088 191.873 69.8561C192.258 69.9034 192.559 69.9743 192.775 70.0689C192.992 70.1636 193.148 70.2818 193.244 70.4237C193.34 70.5653 193.388 70.7311 193.388 70.9201V90.0397C195.097 88.2666 196.816 86.954 198.548 86.1027C200.28 85.2274 202.024 84.7901 203.78 84.7901C205.944 84.7901 207.761 85.1568 209.228 85.8897C210.719 86.5992 211.922 87.557 212.836 88.7631C213.749 89.9692 214.399 91.3876 214.784 93.0197C215.193 94.6278 215.397 96.5787 215.397 98.8724V118.312ZM250.72 118.347C250.72 118.63 250.623 118.843 250.43 118.985C250.238 119.127 249.973 119.233 249.637 119.305C249.3 119.375 248.807 119.411 248.158 119.411C247.532 119.411 247.027 119.375 246.643 119.305C246.282 119.233 246.017 119.127 245.848 118.985C245.681 118.843 245.596 118.63 245.596 118.347V115.155C244.177 116.644 242.589 117.803 240.834 118.63C239.102 119.458 237.262 119.872 235.314 119.872C233.605 119.872 232.054 119.647 230.659 119.198C229.288 118.772 228.109 118.146 227.123 117.318C226.161 116.49 225.404 115.473 224.85 114.267C224.321 113.061 224.056 111.69 224.056 110.152C224.056 108.355 224.429 106.794 225.175 105.471C225.921 104.146 226.991 103.046 228.386 102.171C229.781 101.297 231.489 100.646 233.509 100.22C235.529 99.7709 237.803 99.5467 240.328 99.5467H244.802V97.0632C244.802 95.8339 244.67 94.7456 244.406 93.7998C244.141 92.8539 243.708 92.0739 243.107 91.4588C242.529 90.8205 241.771 90.3472 240.834 90.0397C239.895 89.7089 238.741 89.5432 237.37 89.5432C235.903 89.5432 234.58 89.7209 233.401 90.075C232.247 90.4065 231.224 90.7845 230.334 91.2105C229.468 91.6126 228.735 91.9906 228.133 92.3454C227.556 92.6769 227.123 92.8419 226.835 92.8419C226.642 92.8419 226.474 92.7947 226.33 92.7002C226.185 92.6057 226.053 92.4639 225.933 92.2749C225.836 92.0851 225.764 91.8489 225.716 91.5653C225.668 91.2578 225.644 90.927 225.644 90.5722C225.644 89.9805 225.68 89.5199 225.752 89.1884C225.848 88.8336 226.053 88.5028 226.366 88.1953C226.702 87.8878 227.267 87.533 228.061 87.131C228.855 86.7057 229.769 86.327 230.803 85.9962C231.838 85.6414 232.968 85.3579 234.195 85.1449C235.422 84.9079 236.66 84.7901 237.911 84.7901C240.244 84.7901 242.228 85.0503 243.864 85.5702C245.5 86.0907 246.823 86.8595 247.833 87.8758C248.844 88.8696 249.577 90.111 250.034 91.6006C250.491 93.0902 250.72 94.8288 250.72 96.815V118.347ZM244.802 103.768H239.715C238.08 103.768 236.66 103.91 235.458 104.193C234.255 104.454 233.257 104.856 232.463 105.399C231.669 105.92 231.08 106.558 230.695 107.315C230.334 108.048 230.154 108.899 230.154 109.869C230.154 111.524 230.683 112.849 231.742 113.842C232.824 114.811 234.327 115.296 236.251 115.296C237.815 115.296 239.258 114.906 240.581 114.125C241.928 113.345 243.335 112.151 244.802 110.543V103.768ZM289.649 118.312C289.649 118.501 289.601 118.666 289.505 118.808C289.409 118.926 289.253 119.032 289.036 119.127C288.819 119.222 288.519 119.293 288.134 119.34C287.749 119.387 287.268 119.411 286.691 119.411C286.09 119.411 285.596 119.387 285.212 119.34C284.826 119.293 284.526 119.222 284.31 119.127C284.093 119.032 283.937 118.926 283.841 118.808C283.745 118.666 283.697 118.501 283.697 118.312V99.6172C283.697 97.7968 283.552 96.3304 283.263 95.2188C282.975 94.1073 282.554 93.1495 282.001 92.3454C281.448 91.5413 280.726 90.927 279.836 90.501C278.97 90.075 277.96 89.8627 276.805 89.8627C275.314 89.8627 273.822 90.3825 272.331 91.4236C270.84 92.4639 269.276 93.9888 267.641 95.9989V118.312C267.641 118.501 267.593 118.666 267.496 118.808C267.4 118.926 267.244 119.032 267.027 119.127C266.811 119.222 266.51 119.293 266.125 119.34C265.74 119.387 265.247 119.411 264.646 119.411C264.069 119.411 263.588 119.387 263.203 119.34C262.818 119.293 262.506 119.222 262.265 119.127C262.049 119.032 261.892 118.926 261.796 118.808C261.724 118.666 261.688 118.501 261.688 118.312V86.3862C261.688 86.1972 261.724 86.0434 261.796 85.9249C261.868 85.7832 262.013 85.6647 262.229 85.5702C262.445 85.4524 262.722 85.3811 263.059 85.3579C263.395 85.3099 263.841 85.2866 264.394 85.2866C264.923 85.2866 265.356 85.3099 265.692 85.3579C266.053 85.3811 266.33 85.4524 266.522 85.5702C266.714 85.6647 266.847 85.7832 266.919 85.9249C267.015 86.0434 267.064 86.1972 267.064 86.3862V90.6075C268.892 88.5974 270.707 87.131 272.512 86.2092C274.34 85.2626 276.18 84.7901 278.032 84.7901C280.196 84.7901 282.013 85.1568 283.48 85.8897C284.971 86.5992 286.174 87.557 287.088 88.7631C288.002 89.9692 288.652 91.3876 289.036 93.0197C289.445 94.6278 289.649 96.5667 289.649 98.8371V118.312Z" fill="black"/>
</g>
<path d="M42.6953 34.7154C69.7715 34.5911 91.8924 56.1372 92.0187 82.7575L79.7448 82.8139C79.6903 73.216 75.764 64.031 68.8289 57.2757C61.8934 50.5205 52.5153 46.7466 42.7526 46.7822L42.6953 34.7154Z" fill="#36B72E"/>
<path d="M41.6719 14.2859C80.2414 14.1123 111.755 44.8074 111.939 82.7277L100.282 82.7813C100.132 51.1781 73.871 25.5988 41.7263 25.7464L41.6719 14.2859Z" fill="#FDBB4C"/>
<path d="M53.5653 62.1173C54.9458 62.112 56.3138 62.3742 57.5911 62.8887C58.8686 63.4033 60.0304 64.1601 61.0103 65.1161C61.9902 66.0722 62.769 67.2085 63.3022 68.4604C63.8354 69.7124 64.1126 71.0554 64.1179 72.4124C64.1232 73.7694 63.8566 75.1144 63.3333 76.3706C62.8099 77.6268 62.0401 78.7687 61.0677 79.7321C60.0953 80.6956 58.9395 81.4616 57.6662 81.9856C56.3928 82.5097 55.0269 82.7819 53.6465 82.7875C50.8579 82.7974 48.1795 81.7183 46.2006 79.7864C44.2216 77.8553 43.104 75.2294 43.0938 72.4878C43.0836 69.7465 44.1815 67.1132 46.1461 65.1675C48.1107 63.2219 50.7767 62.1273 53.5653 62.1173Z" fill="#FDBB4C"/>
<defs>
<filter id="filter0_d_964_59148" x="2.20703" y="69.7852" width="291.443" height="70.3594" filterUnits="userSpaceOnUse" color-interpolation-filters="sRGB">
<feFlood flood-opacity="0" result="BackgroundImageFix"/>
<feColorMatrix in="SourceAlpha" type="matrix" values="0 0 0 0 0 0 0 0 0 0 0 0 0 0 0 0 0 0 127 0" result="hardAlpha"/>
<feOffset dy="4"/>
<feGaussianBlur stdDeviation="2"/>
<feComposite in2="hardAlpha" operator="out"/>
<feColorMatrix type="matrix" values="0 0 0 0 0 0 0 0 0 0 0 0 0 0 0 0 0 0 0.25 0"/>
<feBlend mode="normal" in2="BackgroundImageFix" result="effect1_dropShadow_964_59148"/>
<feBlend mode="normal" in="SourceGraphic" in2="effect1_dropShadow_964_59148" result="shape"/>
</filter>
</defs>
</svg>
